<svg xmlns="http://www.w3.org/2000/svg" xmlns:xlink="http://www.w3.org/1999/xlink" width="16" height="17" viewBox="0 0 16 17">
    <defs>
        <path id="a" d="M15.051 17H0V0h15.051z"/>
    </defs>
    <g fill="none" fill-rule="evenodd">
        <g transform="translate(.375)">
            <mask id="b" fill="#fff">
                <use xlink:href="#a"/>
            </mask>
            <path fill="#002E6E" d="M13.457 14.345H1.593a.768.768 0 0 1-.767-.767V9.384h13.398v4.194a.768.768 0 0 1-.767.767zm-1.16 1.829c-.698 0-.698-.185-.698-.334v-.668h1.394v.668c0 .149 0 .334-.697.334zm-8.845-.334c0 .149 0 .334-.697.334s-.697-.185-.697-.334v-.668h1.394v.668zm-1-15.014H12.6c.896 0 1.624.729 1.624 1.625v6.107H.826V2.45c0-.896.73-1.625 1.625-1.625zM12.6 0H2.451A2.454 2.454 0 0 0 0 2.451v11.127c0 .754.527 1.386 1.231 1.55v.712c0 .53.265 1.16 1.524 1.16 1.26 0 1.524-.63 1.524-1.16v-.668h6.494v.668c0 .53.264 1.16 1.523 1.16s1.523-.63 1.523-1.16v-.711a1.596 1.596 0 0 0 1.232-1.55V2.45c0-1.351-1.1-2.45-2.45-2.45z" mask="url(#b)"/>
        </g>
        <path fill="#00B9F5" d="M3.075 10.203a.924.924 0 1 0 0 1.848.924.924 0 0 0 0-1.848M12.695 10.203a.924.924 0 1 0 0 1.848.924.924 0 0 0 0-1.848"/>
        <path fill="#002E6E" d="M5.617 2.075h4.485a.236.236 0 1 0 0-.473H5.617a.236.236 0 0 0 0 .473"/>
        <path d="M-6 0h28.333v17H-6z"/>
    </g>
</svg>
