<svg xmlns="http://www.w3.org/2000/svg" xmlns:xlink="http://www.w3.org/1999/xlink" width="27" height="15" viewBox="0 0 27 15">
    <defs>
        <path id="a" d="M27.231 14.716H0V.078h27.231z"/>
    </defs>
    <g fill="none" fill-rule="evenodd">
        <g transform="translate(-.722 .445)">
            <mask id="b" fill="#fff">
                <use xlink:href="#a"/>
            </mask>
            <path fill="#002E6E" d="M24.744 11.643c0 .716-.594 1.3-1.325 1.3-.73 0-1.324-.584-1.324-1.3 0-.717.594-1.3 1.324-1.3.73 0 1.325.583 1.325 1.3m-10.127 1.36c-2.27 0-4.118-1.82-4.118-4.06 0-2.238 1.848-4.06 4.118-4.06 2.27 0 4.117 1.822 4.117 4.06 0 .335-.042.66-.12.971-.442 1.772-2.066 3.09-3.997 3.09m-7.48-1.361c0 .716-.594 1.3-1.325 1.3-.73 0-1.325-.584-1.325-1.3 0-.717.595-1.3 1.325-1.3s1.325.583 1.325 1.3M27.874 9.63h-8.475c.033-.225.05-.454.05-.687 0-2.513-1.976-4.577-4.475-4.758V-.567a.357.357 0 0 0-.357-.355.357.357 0 0 0-.358.355v4.753c-2.498.181-4.475 2.245-4.475 4.758 0 .233.018.462.05.687H1.359A.357.357 0 0 0 1 9.986c0 .197.16.356.358.356h2.9a1.988 1.988 0 0 0-.486 1.3c0 1.11.916 2.013 2.04 2.013 1.125 0 2.04-.903 2.04-2.012 0-.496-.184-.95-.486-1.3h2.63a4.834 4.834 0 0 0 4.621 3.373 4.835 4.835 0 0 0 4.62-3.374h2.629a1.985 1.985 0 0 0-.487 1.3c0 1.11.916 2.013 2.04 2.013 1.125 0 2.04-.903 2.04-2.012 0-.496-.183-.95-.486-1.3h2.9a.357.357 0 1 0 0-.712" mask="url(#b)"/>
        </g>
        <path fill="#00B9F5" d="M13.895 6.226c-1.635 0-2.96 1.308-2.96 2.921h5.92c0-1.613-1.325-2.92-2.96-2.92"/>
    </g>
</svg>
