<svg xmlns="http://www.w3.org/2000/svg" width="49" height="16" viewBox="0 0 49 16">
    <g fill="none" fill-rule="evenodd">
        <path fill="#00BAF2" d="M48.769 4.58c-.444-1.287-1.65-2.21-3.07-2.21h-.029c-.922 0-1.753.39-2.345 1.015a3.218 3.218 0 0 0-2.344-1.015h-.03a3.21 3.21 0 0 0-2.12.8v-.253a.483.483 0 0 0-.477-.452h-2.176a.485.485 0 0 0-.48.49v11.993c0 .27.215.49.48.49h2.176a.482.482 0 0 0 .474-.423V7.982l-.001-1.576a.798.798 0 0 1 .754-.826h.401a.834.834 0 0 1 .46.18c.189.154.295.388.294.646v8.253l.009.314c0 .27.216.49.48.49h2.176a.484.484 0 0 0 .479-.466V7.97l-.002-1.576a.81.81 0 0 1 .355-.69.854.854 0 0 1 .4-.136h.4c.47.042.756.403.755.826l-.001 1.576v.445h.009v6.534c0 .27.216.49.481.49h2.176a.485.485 0 0 0 .48-.49V5.748c0-.627-.07-.894-.164-1.168M33.72 2.499h-1.244V.452.446a.443.443 0 0 0-.522-.437c-1.38.384-1.103 2.324-3.622 2.49h-.245a.47.47 0 0 0-.105.012h-.002.002a.486.486 0 0 0-.376.476v2.208c0 .27.215.489.481.489H29.4v6.39l-.001.015v2.959a.48.48 0 0 0 .475.483h2.151a.48.48 0 0 0 .476-.483V5.684h1.22c.264 0 .48-.219.48-.49V2.988a.485.485 0 0 0-.48-.488"/>
        <path fill="#20336B" d="M25.82 2.844h-2.176a.485.485 0 0 0-.48.488v1.186h-.01v1.445c.007.034.01.068.01.104v1.832a.513.513 0 0 1-.51.51h-.911a.514.514 0 0 1-.51-.518V4.518h-.009V3.332a.485.485 0 0 0-.48-.488h-2.176a.485.485 0 0 0-.481.488v5.005c0 1.902 1.335 3.256 3.21 3.256h1.373s.032 0 .076.009c.253.03.451.245.451.511a.513.513 0 0 1-.445.51l-.036.007-.618.011h-2.564a.485.485 0 0 0-.481.49v2.207c0 .27.215.488.48.488h3.558c1.874 0 3.21-1.355 3.21-3.256V3.332a.485.485 0 0 0-.481-.488M5.036 6.891v1.363a.514.514 0 0 1-.51.517h-.204l-.012.002H3.146V6.041h1.38c.282 0 .51.232.51.518v.332zm.191-4.047H2.645l-.03.001H.472A.475.475 0 0 0 0 3.322v2.163l.001.013-.001.03v9.793c0 .267.196.483.44.49h2.216a.485.485 0 0 0 .482-.489l.008-3.356h2.081c1.743 0 2.957-1.226 2.957-3.002V5.85c0-1.775-1.214-3.006-2.957-3.006zM14.159 12.063v.345a.462.462 0 0 1-.03.153.51.51 0 0 1-.483.332h-.905a.5.5 0 0 1-.513-.485v-.417l-.001-.015v-1.109-.347-.003a.5.5 0 0 1 .514-.483h.905a.5.5 0 0 1 .513.486v1.543zm-.347-9.219h-3.018a.472.472 0 0 0-.484.458v.859l.002.017-.002.018v1.177a.5.5 0 0 0 .513.485H13.697a.503.503 0 0 1 .433.467v.285c-.026.25-.204.433-.421.454h-1.423c-1.893 0-3.243 1.277-3.243 3.069v2.57c0 1.782 1.16 3.05 3.04 3.05h2.677l.053-.002.021.001h1.195c.707 0 1.282-.543 1.282-1.214V6.16c0-2.032-1.033-3.315-3.499-3.315z"/>
    </g>
</svg>
