<svg xmlns="http://www.w3.org/2000/svg" xmlns:xlink="http://www.w3.org/1999/xlink" width="12" height="17" viewBox="0 0 12 17">
    <defs>
        <path id="a" d="M9.404 16.208h2.572v-1.893H9.404z"/>
        <path id="c" d="M2.572 16.208H0v-1.893h2.572z"/>
    </defs>
    <g fill="none" fill-rule="evenodd">
        <path fill="#20336B" d="M10.297 12.859l-2.1.799-.419-1.585a4.944 4.944 0 0 0 1.607-1.139l1.228 1.483-.316.442zm-9-.442l1.086-1.312A4.94 4.94 0 0 0 3.99 12.14l-.397 1.498-1.98-.779-.318-.443zm3.539-.023c.312.062.634.097.965.097a4.9 4.9 0 0 0 1.14-.139l.382 1.447h-2.86l.373-1.405zm.965-8.91c2.234 0 4.051 1.825 4.051 4.067s-1.817 4.066-4.051 4.066-4.052-1.824-4.052-4.066 1.818-4.067 4.052-4.067zM4.814.996h2.168l-.357 1.69a4.866 4.866 0 0 0-.824-.075c-.225 0-.446.02-.663.05L4.814.996zm6.125 12.476l.588-.821a.433.433 0 0 0-.02-.53L9.94 10.229c.5-.773.794-1.691.794-2.678 0-2.134-1.36-3.95-3.256-4.64L7.884.99H3.915l.363 1.865A4.946 4.946 0 0 0 .868 7.55a4.91 4.91 0 0 0 .933 2.88L.4 12.12a.434.434 0 0 0-.019.53l.588.82a.44.44 0 0 0 .197.154l2.586 1.016c.052.02.107.031.163.031H7.91c.054 0 .108-.01.159-.029l2.67-1.016a.44.44 0 0 0 .2-.155z"/>
        <path fill="#00B9F6" d="M5.8 8.968c.777 0 1.409-.636 1.409-1.417S6.577 6.134 5.8 6.134c-.777 0-1.409.636-1.409 1.417s.632 1.417 1.409 1.417"/>
        <path fill="#20336B" d="M5.8 6.134c.777 0 1.409.636 1.409 1.417 0 .78-.632 1.417-1.408 1.417A1.414 1.414 0 0 1 4.392 7.55c0-.781.632-1.417 1.409-1.417m0 3.707a2.292 2.292 0 0 0 2.29-2.29 2.293 2.293 0 0 0-2.29-2.29 2.293 2.293 0 0 0-2.29 2.29 2.292 2.292 0 0 0 2.29 2.29M8.288.99c.243 0 .44-.196.44-.437a.439.439 0 0 0-.44-.437H3.6a.439.439 0 0 0-.441.437c0 .241.197.437.44.437h4.689z"/>
        <mask id="b" fill="#fff">
            <use xlink:href="#a"/>
        </mask>
        <path fill="#20336B" d="M11.764 15.398l-1.69-1.019a.444.444 0 0 0-.606.146.435.435 0 0 0 .148.6l1.69 1.019a.443.443 0 0 0 .605-.146.434.434 0 0 0-.147-.6" mask="url(#b)"/>
        <mask id="d" fill="#fff">
            <use xlink:href="#c"/>
        </mask>
        <path fill="#20336B" d="M1.901 14.38l-1.69 1.018a.434.434 0 0 0-.146.6.441.441 0 0 0 .605.146l1.69-1.019a.435.435 0 0 0 .147-.6.443.443 0 0 0-.606-.146" mask="url(#d)"/>
    </g>
</svg>
